<?xml version="1.0" standalone="no"?><!DOCTYPE svg PUBLIC "-//W3C//DTD SVG 1.1//EN" "http://www.w3.org/Graphics/SVG/1.1/DTD/svg11.dtd"><svg t="1590090980042" class="icon" viewBox="0 0 1117 1024" version="1.1" xmlns="http://www.w3.org/2000/svg" p-id="2738" xmlns:xlink="http://www.w3.org/1999/xlink" width="218.1640625" height="200"><defs><style type="text/css"></style></defs><path d="M930.909091 139.636364H407.272727C377.018182 58.181818 300.218182 0 209.454545 0 109.381818 0 23.272727 72.145455 4.654545 167.563636 2.327273 181.527273 0 195.490909 0 209.454545v628.363637c0 102.4 83.781818 186.181818 186.181818 186.181818h744.727273c102.4 0 186.181818-83.781818 186.181818-186.181818V325.818182c0-102.4-83.781818-186.181818-186.181818-186.181818z m93.090909 186.181818v337.454545l-283.927273-100.072727L826.181818 232.727273H930.909091c51.2 0 93.090909 41.890909 93.090909 93.090909z m-293.236364-93.090909L651.636364 535.272727l-232.727273-81.454545V232.727273h311.854545zM93.090909 232.727273V209.454545c0-25.6 9.309091-51.2 23.272727-69.818181 20.945455-27.927273 53.527273-46.545455 93.090909-46.545455s72.145455 18.618182 93.09091 46.545455c13.963636 18.618182 23.272727 44.218182 23.272727 69.818181v449.163637c-32.581818-23.272727-74.472727-34.909091-116.363637-34.909091s-83.781818 13.963636-116.363636 34.909091V232.727273z m837.818182 698.181818H186.181818c-51.2 0-93.090909-41.890909-93.090909-93.090909v-6.981818c0-65.163636 51.2-116.363636 116.363636-116.363637s116.363636 51.2 116.363637 116.363637c0 25.6 20.945455 46.545455 46.545454 46.545454s46.545455-20.945455 46.545455-46.545454v-279.272728l605.090909 211.781819V837.818182c0 51.2-41.890909 93.090909-93.090909 93.090909z" fill="#2D3548" p-id="2739"></path></svg>