<?xml version="1.0" standalone="no"?><!DOCTYPE svg PUBLIC "-//W3C//DTD SVG 1.1//EN" "http://www.w3.org/Graphics/SVG/1.1/DTD/svg11.dtd"><svg t="1590091040892" class="icon" viewBox="0 0 1024 1024" version="1.1" xmlns="http://www.w3.org/2000/svg" p-id="2890" xmlns:xlink="http://www.w3.org/1999/xlink" width="200" height="200"><defs><style type="text/css"></style></defs><path d="M945.6 784.531c-11.916-25.569-25.697-54.366-41.091-86.534-15.396-32.174-31.781-65.888-49.041-101.006-17.378-35.123-34.757-70.805-52.384-107.334-17.633-36.522-19.523-73.072-36.532-107.068-38.978-80.07-49.86-290.34-137.147-243.993s-235.876 492.95-235.876 492.95-63.114-288.176-119.924-264.527-66.004 96.117-89.343 145c-10.057 20.511-13.06 45.743-23.735 68.363l-20.871 65.916c-10.676 22.756-21.231 44.954-31.657 67.01-10.431 22.057-19.99 42.427-28.801 61.669-6.335 14.189-9.809 28.097-10.431 42.004-0.617 13.766 1.615 26.129 6.583 37.227 5.089 10.958 13.033 20.088 24.082 27.115C110.481 888.346 124.511 892 141.396 892h734.187c15.639 0 29.544-2.808 41.465-8.432 11.916-5.616 21.226-13.343 27.804-22.756 6.583-9.553 10.057-20.934 10.431-33.994 0.498-13.35-2.731-27.398-9.683-42.287z" fill="#35D9E7" p-id="2891"></path></svg>